<svg version="1.1" xmlns="http://www.w3.org/2000/svg" xmlns:xlink="http://www.w3.org/1999/xlink" width="217.80469" height="97.87032" viewBox="0,0,217.80469,97.87032"><g transform="translate(-96.35661,-64.40616)"><g data-paper-data="{&quot;isPaintingLayer&quot;:true}" stroke-miterlimit="10" stroke-dasharray="" stroke-dashoffset="0" style="mix-blend-mode: normal"><text transform="translate(96.60661,86.15616) scale(0.5,0.5)" font-size="40" xml:space="preserve" fill="#f20000" fill-rule="nonzero" stroke="none" stroke-width="1" stroke-linecap="butt" stroke-linejoin="miter" stroke-miterlimit="10" stroke-dasharray="" stroke-dashoffset="0" font-family="Sans Serif" font-weight="normal" text-anchor="start" style="mix-blend-mode: normal"><tspan x="0" dy="0">Dark Cheese Puff?!?!?!?</tspan></text><g><path d="M188.39234,147.48996c0.5,0.4 6.6,7.6 8.6,5.8c2.4,-2.1 5.7,-6.2 9.3,-2.9c3.6,3.3 -3.2,8.9 -6.1,10.4c-6.9,3.1 -12.5,-2.8 -13.7,-4.4c-1.2,-1.6 -3.3,-4.3 -3.3,-6.9c0.1,-2.8 3.5,-3.5 5.2,-2z" fill="#5e5e5e" fill-rule="evenodd" stroke="#001026" stroke-width="1.2" stroke-linecap="round" stroke-linejoin="round"/><path d="M191.91734,153.88684c0,1.31168 -0.95139,2.375 -2.125,2.375c-1.17361,0 -2.125,-1.06332 -2.125,-2.375c0,-1.31168 0.95139,-2.375 2.125,-2.375c1.17361,0 2.125,1.06332 2.125,2.375z" fill="#f20000" fill-rule="nonzero" stroke="none" stroke-width="NaN" stroke-linecap="butt" stroke-linejoin="miter"/><path d="M202.66734,155.51184c0,0.9665 -0.83947,1.75 -1.875,1.75c-1.03553,0 -1.875,-0.7835 -1.875,-1.75c0,-0.9665 0.83947,-1.75 1.875,-1.75c1.03553,0 1.875,0.7835 1.875,1.75z" fill="#f20000" fill-rule="nonzero" stroke="none" stroke-width="0" stroke-linecap="butt" stroke-linejoin="miter"/></g><text transform="translate(150.99319,204.44075) scale(0.5,0.5)" font-size="40" xml:space="preserve" fill="#ff0000" fill-rule="nonzero" stroke="none" stroke-width="1" stroke-linecap="butt" stroke-linejoin="miter" stroke-miterlimit="10" stroke-dasharray="" stroke-dashoffset="0" font-family="Sans Serif" font-weight="normal" text-anchor="start" style="mix-blend-mode: normal"><tspan x="0" dy="0"> </tspan></text></g></g></svg>