<svg version="1.1" xmlns="http://www.w3.org/2000/svg" xmlns:xlink="http://www.w3.org/1999/xlink" width="473.92825" height="245.41981" viewBox="0,0,473.92825,245.41981"><g transform="translate(29.19995,-55.11845)"><g data-paper-data="{&quot;isPaintingLayer&quot;:true}" stroke-miterlimit="10" stroke-dasharray="" stroke-dashoffset="0" style="mix-blend-mode: normal"><path d="M425.20189,60.25231c0.5,0.4 6.6,7.6 8.6,5.8c2.4,-2.1 5.7,-6.2 9.3,-2.9c3.6,3.3 -3.2,8.9 -6.1,10.4c-6.9,3.1 -12.5,-2.8 -13.7,-4.4c-1.2,-1.6 -3.3,-4.3 -3.3,-6.9c0.1,-2.8 3.5,-3.5 5.2,-2z" fill="#fff550" fill-rule="evenodd" stroke="#001026" stroke-width="1.2" stroke-linecap="round" stroke-linejoin="round"/><path d="M434.67617,66.61414c1.38071,0 2.5,1.11929 2.5,2.5c0,1.11643 -0.73182,2.06194 -1.74192,2.383c-0.45857,0.53988 -1.1424,0.88245 -1.90625,0.88245c-0.49282,0 -0.95233,-0.1426 -1.33953,-0.38878c-0.3872,0.24618 -0.84671,0.38878 -1.33953,0.38878c-1.38071,0 -2.5,-1.11929 -2.5,-2.5c0,-1.38071 1.11929,-2.5 2.5,-2.5c0.49282,0 0.95233,0.1426 1.33953,0.38878c0.17956,-0.11416 0.37467,-0.20605 0.58144,-0.27177c0.45857,-0.53988 1.1424,-0.88245 1.90625,-0.88245z" fill="#ffffff" fill-rule="nonzero" stroke="none" stroke-width="0.5" stroke-linecap="butt" stroke-linejoin="miter"/><path d="M144.71108,299.52724v-9.25h65.5v9.25z" fill="#ffffff" fill-rule="nonzero" stroke="#ffffff" stroke-width="2" stroke-linecap="butt" stroke-linejoin="miter"/><path d="M143.59386,299.53826v-10h65.5v9.75" fill="none" fill-rule="nonzero" stroke="#000000" stroke-width="2" stroke-linecap="round" stroke-linejoin="miter"/><path d="M35.49507,228.38324v-9.25h65.5v9.25z" fill="#ffffff" fill-rule="nonzero" stroke="#ffffff" stroke-width="2" stroke-linecap="butt" stroke-linejoin="miter"/><path d="M34.37785,228.39426v-10h65.5v9.75" fill="none" fill-rule="nonzero" stroke="#000000" stroke-width="2" stroke-linecap="round" stroke-linejoin="miter"/><path d="M-27.08273,150.57663v-9.25h65.5v9.25z" fill="#ffffff" fill-rule="nonzero" stroke="#ffffff" stroke-width="2" stroke-linecap="butt" stroke-linejoin="miter"/><path d="M-28.19995,150.58765v-10h65.5v9.75" fill="none" fill-rule="nonzero" stroke="#000000" stroke-width="2" stroke-linecap="round" stroke-linejoin="miter"/><path d="M146.38588,66.10743v-9.25h65.5v9.25z" fill="#ffffff" fill-rule="nonzero" stroke="#ffffff" stroke-width="2" stroke-linecap="butt" stroke-linejoin="miter"/><path d="M145.26866,66.11845v-10h65.5v9.75" fill="none" fill-rule="nonzero" stroke="#000000" stroke-width="2" stroke-linecap="round" stroke-linejoin="miter"/><path d="M255.13208,226.25084v-9.25h65.5v9.25z" fill="#ffffff" fill-rule="nonzero" stroke="#ffffff" stroke-width="2" stroke-linecap="butt" stroke-linejoin="miter"/><path d="M254.01486,226.26186v-10h65.5v9.75" fill="none" fill-rule="nonzero" stroke="#000000" stroke-width="2" stroke-linecap="round" stroke-linejoin="miter"/><path d="M342.93869,186.51623v-9.25h65.5v9.25z" fill="#ffffff" fill-rule="nonzero" stroke="#ffffff" stroke-width="2" stroke-linecap="butt" stroke-linejoin="miter"/><path d="M341.82147,186.52725v-10h65.5v9.75" fill="none" fill-rule="nonzero" stroke="#000000" stroke-width="2" stroke-linecap="round" stroke-linejoin="miter"/><path d="M235.73207,116.32403v-9.25h15.9006v9.25z" fill="#ffffff" fill-rule="nonzero" stroke="#ffffff" stroke-width="2" stroke-linecap="butt" stroke-linejoin="miter"/><path d="M235.46086,116.33505v-10h15.9006v9.75" fill="none" fill-rule="nonzero" stroke="#000000" stroke-width="2" stroke-linecap="round" stroke-linejoin="miter"/></g></g></svg>