<svg version="1.1" xmlns="http://www.w3.org/2000/svg" xmlns:xlink="http://www.w3.org/1999/xlink" width="330.91764" height="254.14251" viewBox="0,0,330.91764,254.14251"><g transform="translate(-9.12924,-55.29805)"><g data-paper-data="{&quot;isPaintingLayer&quot;:true}" fill-rule="nonzero" stroke-linejoin="miter" stroke-miterlimit="10" stroke-dasharray="" stroke-dashoffset="0" style="mix-blend-mode: normal"><text transform="translate(70.89277,77.04805) scale(0.5,0.5)" font-size="40" xml:space="preserve" fill="#ff0000" fill-rule="nonzero" stroke="none" stroke-width="1" stroke-linecap="butt" stroke-linejoin="miter" stroke-miterlimit="10" stroke-dasharray="" stroke-dashoffset="0" font-family="Sans Serif" font-weight="normal" text-anchor="start" style="mix-blend-mode: normal"><tspan x="0" dy="0">SECRET LEVELS!!!!!!!</tspan></text><text transform="translate(9.37924,141) scale(0.5,0.5)" font-size="40" xml:space="preserve" fill="#ff0000" fill-rule="nonzero" stroke="none" stroke-width="1" stroke-linecap="butt" stroke-linejoin="miter" stroke-miterlimit="10" stroke-dasharray="" stroke-dashoffset="0" font-family="Sans Serif" font-weight="normal" text-anchor="start" style="mix-blend-mode: normal"><tspan x="0" dy="0"> </tspan></text><g stroke-width="2"><path d="M87.37571,303.44056v-9.25h65.5v9.25z" fill="#ffffff" stroke="#ffffff" stroke-linecap="butt"/><path d="M86.64066,294.06403l66.79049,0.25109" fill="none" stroke="#000000" stroke-linecap="round"/><path d="M92.37571,308.44056v-9.25h65.5v9.25z" fill="#ffffff" stroke="#ffffff" stroke-linecap="butt"/></g><g stroke-width="2"><path d="M183.96731,272.40452v-9.25h65.5v9.25z" fill="#ffffff" stroke="#ffffff" stroke-linecap="butt"/><path d="M250.02275,263.27908l-66.79049,-0.25109" fill="none" stroke="#000000" stroke-linecap="round"/><path d="M188.96731,277.40452v-9.25h65.5v9.25z" fill="#ffffff" stroke="#ffffff" stroke-linecap="butt"/></g><g stroke-width="2"><path d="M268.54688,241.36849v-9.25h65.5v9.25z" fill="#ffffff" stroke="#ffffff" stroke-linecap="butt"/><path d="M267.81183,231.99196l66.79049,0.25109" fill="none" stroke="#000000" stroke-linecap="round"/><path d="M273.54688,246.36849v-9.25h65.5v9.25z" fill="#ffffff" stroke="#ffffff" stroke-linecap="butt"/></g><g stroke-width="2"><path d="M180.4538,199.82194v-9.25h65.5v9.25z" fill="#ffffff" stroke="#ffffff" stroke-linecap="butt"/><path d="M179.71873,190.44541l66.79049,0.25109" fill="none" stroke="#000000" stroke-linecap="round"/><path d="M185.4538,204.82194v-9.25h65.5v9.25z" fill="#ffffff" stroke="#ffffff" stroke-linecap="butt"/></g><g stroke-width="2"><path d="M90.8592,159.7769v-9.25h65.5v9.25z" fill="#ffffff" stroke="#ffffff" stroke-linecap="butt"/><path d="M90.12415,150.40037l66.79049,0.25109" fill="none" stroke="#000000" stroke-linecap="round"/><path d="M95.8592,164.7769v-9.25h65.5v9.25z" fill="#ffffff" stroke="#ffffff" stroke-linecap="butt"/></g><g stroke-width="2"><path d="M267.03037,92.70483v-9.25h65.5v9.25z" fill="#ffffff" stroke="#ffffff" stroke-linecap="butt"/><path d="M266.29532,83.3283l66.79049,0.25109" fill="none" stroke="#000000" stroke-linecap="round"/><path d="M272.03037,97.70483v-9.25h65.5v9.25z" fill="#ffffff" stroke="#ffffff" stroke-linecap="butt"/></g></g></g></svg>